<svg viewBox="0 0 26 26" fill="none" xmlns="http://www.w3.org/2000/svg">
<path d="M19.499 0.00540974L16.1274 0C12.3395 0 9.8916 2.51147 9.8916 6.39863V9.34883H6.50159C6.20865 9.34883 5.97144 9.58632 5.97144 9.87926V14.1538C5.97144 14.4467 6.20892 14.6839 6.50159 14.6839H9.8916V25.4698C9.8916 25.7628 10.1288 26 10.4218 26H14.8448C15.1377 26 15.3749 25.7625 15.3749 25.4698V14.6839H19.3386C19.6316 14.6839 19.8688 14.4467 19.8688 14.1538L19.8704 9.87926C19.8704 9.73861 19.8144 9.6039 19.7151 9.50436C19.6159 9.40483 19.4806 9.34883 19.34 9.34883H15.3749V6.84791C15.3749 5.64587 15.6614 5.03565 17.2272 5.03565L19.4985 5.03484C19.7912 5.03484 20.0284 4.79735 20.0284 4.50469V0.535564C20.0284 0.243168 19.7914 0.00595071 19.499 0.00540974Z" fill="#7C7C7C"/>
</svg>
