<svg viewBox="0 0 26 26" fill="none" xmlns="http://www.w3.org/2000/svg">
<path d="M25.9999 5.57441C25.072 5.98559 24.0763 6.26444 23.0302 6.38894C24.0984 5.74929 24.916 4.7347 25.3036 3.52947C24.3016 4.12183 23.1956 4.55196 22.0171 4.78513C21.0734 3.77842 19.7311 3.15137 18.2423 3.15137C15.386 3.15137 13.0701 5.4673 13.0701 8.32203C13.0701 8.72691 13.1157 9.12235 13.204 9.50049C8.90615 9.28462 5.09512 7.22551 2.54445 4.09662C2.09858 4.85916 1.84494 5.74768 1.84494 6.69614C1.84494 8.49061 2.75871 10.0739 4.14513 11.0003C3.29752 10.9719 2.50033 10.7388 1.80242 10.3512V10.4158C1.80242 12.9208 3.58585 15.0114 5.9506 15.4872C5.51734 15.6038 5.06047 15.6684 4.58783 15.6684C4.25385 15.6684 3.93087 15.6353 3.6142 15.5723C4.27272 17.6283 6.18221 19.1234 8.44458 19.1644C6.67533 20.5508 4.44447 21.3747 2.02142 21.3747C1.60394 21.3747 1.19272 21.3495 0.787842 21.3038C3.077 22.7738 5.79467 23.6308 8.71557 23.6308C18.2298 23.6308 23.4304 15.7503 23.4304 8.916L23.4131 8.24644C24.4292 7.52167 25.3083 6.61107 25.9999 5.57441Z" fill="#7C7C7C"/>
</svg>
